<?xml version="1.0" standalone="no"?>
<!DOCTYPE svg PUBLIC "-//W3C//DTD SVG 20010904//EN"
 "http://www.w3.org/TR/2001/REC-SVG-20010904/DTD/svg10.dtd">
<svg version="1.0" xmlns="http://www.w3.org/2000/svg"
 width="900.000000pt" height="978.000000pt" viewBox="0 0 900.000000 978.000000"
 preserveAspectRatio="xMidYMid meet">
<g transform="translate(0.000000,978.000000) scale(0.100000,-0.100000)"
fill="#FFFFFF" stroke="none">
<path d="M6365 9089 c-36 -12 -98 -37 -140 -54 -16 -8 -66 -28 -110 -45 -44
-17 -93 -38 -108 -46 -16 -8 -35 -14 -44 -14 -8 0 -27 -6 -41 -14 -15 -8 -130
-58 -257 -111 -262 -110 -252 -105 -325 -138 -403 -181 -924 -442 -1162 -582
-9 -5 -39 -22 -66 -37 -107 -58 -133 -73 -277 -161 -89 -55 -292 -182 -390
-245 -76 -50 -326 -227 -390 -277 -108 -85 -241 -190 -245 -195 -3 -3 -48 -41
-100 -85 -135 -113 -165 -141 -345 -320 -245 -245 -337 -349 -513 -582 -81
-108 -242 -339 -242 -349 0 -1 -13 -23 -30 -47 -16 -25 -30 -48 -30 -51 0 -4
-12 -25 -27 -49 -15 -23 -62 -114 -106 -202 -91 -185 -103 -211 -147 -325 -12
-30 -26 -66 -32 -80 -18 -46 -75 -224 -92 -287 -69 -265 -106 -441 -106 -506
0 -23 -5 -60 -10 -82 -5 -22 -15 -143 -20 -270 -11 -240 -1 -601 20 -740 45
-288 61 -369 118 -575 25 -94 102 -321 134 -397 l30 -73 -55 -107 c-72 -142
-166 -361 -187 -438 -5 -16 -13 -43 -18 -60 -6 -16 -18 -55 -26 -85 -9 -30
-22 -77 -30 -105 -55 -199 -100 -515 -75 -531 6 -4 55 39 118 103 58 61 138
137 176 170 77 65 190 153 199 153 3 0 25 13 49 30 51 34 247 135 327 168 30
13 64 27 75 31 66 28 104 40 260 84 171 49 453 94 770 122 419 37 591 58 765
91 238 45 314 62 395 89 22 8 55 16 73 20 42 9 43 39 2 60 -39 20 -103 106
-129 173 -20 51 -21 70 -21 580 0 290 -4 532 -8 539 -6 9 -150 13 -592 15
l-585 3 -43 23 c-62 33 -123 97 -157 167 l-30 60 0 545 0 545 27 55 c42 89
114 153 202 183 44 15 114 17 607 17 369 0 560 3 564 10 4 6 9 261 12 568 4
476 7 564 21 602 35 99 83 150 187 200 l61 29 529 3 530 3 65 -32 c71 -35 138
-93 173 -151 50 -81 50 -83 56 -672 l6 -555 550 -5 c303 -3 555 -9 562 -13 31
-20 325 334 610 733 86 120 238 353 327 500 31 52 61 102 66 110 6 8 44 74 85
145 41 72 80 137 85 145 6 8 14 25 20 38 13 31 30 28 30 -5 0 -31 -24 -150
-46 -229 -8 -28 -14 -59 -14 -68 0 -9 -7 -41 -15 -69 -9 -29 -22 -72 -29 -97
-38 -129 -52 -173 -79 -255 -35 -108 -116 -318 -162 -420 -150 -333 -338 -663
-512 -899 l-73 -98 0 -407 c0 -345 -2 -416 -16 -461 -29 -99 -83 -162 -194
-224 -34 -20 -55 -21 -617 -24 l-583 -3 0 -490 c0 -407 -3 -503 -16 -567 -17
-86 -50 -145 -116 -208 -52 -50 -85 -68 -163 -89 -33 -9 -67 -23 -75 -30 -22
-18 -207 -126 -260 -152 -53 -25 -165 -76 -235 -108 -49 -22 -96 -41 -175 -70
-22 -8 -58 -22 -80 -30 -22 -8 -57 -21 -77 -29 -41 -15 -215 -68 -303 -93 -30
-9 -75 -22 -99 -29 -25 -8 -53 -14 -64 -14 -11 0 -43 -7 -71 -14 -113 -33
-543 -106 -617 -106 -21 0 -60 -4 -86 -10 -26 -5 -104 -14 -173 -19 -161 -12
-332 -28 -440 -41 -47 -6 -132 -15 -190 -20 -131 -13 -266 -33 -275 -42 -14
-14 19 -50 98 -105 126 -90 322 -207 447 -268 163 -80 298 -140 385 -170 28
-9 59 -21 70 -26 22 -9 109 -37 200 -64 33 -10 71 -22 85 -26 14 -5 45 -13 70
-18 25 -5 63 -14 85 -19 43 -11 153 -34 248 -52 32 -7 99 -16 150 -21 51 -6
128 -14 172 -19 105 -11 628 -11 730 0 44 5 120 14 168 19 48 5 109 14 135 19
26 6 83 18 127 27 44 10 101 23 127 31 26 8 54 14 62 14 8 0 37 7 63 15 26 8
73 22 103 31 139 41 314 104 415 148 66 30 362 178 390 196 17 11 39 24 50 29
11 5 37 21 58 35 21 14 40 26 42 26 13 0 267 182 392 280 179 141 487 439 609
590 83 103 199 255 243 320 21 30 58 84 82 120 25 36 48 72 52 80 4 8 16 29
27 45 11 17 23 37 27 45 3 8 17 32 30 52 125 201 340 680 392 873 5 17 13 41
19 55 5 14 18 52 27 85 44 148 43 146 88 330 8 33 21 83 27 110 7 28 16 70 20
95 4 25 12 68 18 95 11 50 29 158 56 335 29 191 36 247 46 360 6 63 14 160 20
215 16 169 23 850 12 1165 -10 279 -17 373 -43 620 -6 58 -13 123 -15 145 -6
59 -33 260 -45 340 -6 39 -15 104 -19 145 -10 92 -21 155 -106 605 -34 179
-73 298 -99 303 -21 5 -51 -28 -100 -110 -39 -66 -258 -358 -373 -497 -20 -24
-49 -59 -64 -79 -146 -183 -475 -521 -703 -721 -154 -135 -496 -393 -670 -505
-33 -22 -79 -52 -103 -68 -24 -15 -45 -28 -48 -28 -2 0 -23 -12 -47 -27 -71
-47 -71 -46 -237 -137 -58 -32 -111 -63 -117 -68 -7 -6 -20 -7 -29 -4 -14 6
-16 19 -10 109 11 166 49 483 81 680 19 111 41 246 61 367 8 52 22 125 30 161
8 37 14 75 14 85 0 11 7 51 16 89 23 102 42 196 48 230 2 17 12 66 21 110 9
44 22 109 30 145 7 36 18 88 24 115 6 28 18 82 27 120 8 39 22 97 29 130 7 33
21 96 30 140 9 44 23 105 30 135 7 30 21 91 30 135 10 44 24 107 32 140 8 33
13 80 11 105 -3 50 -17 57 -73 39z"/>
</g>
</svg>
